<svg viewBox="0 0 330 200" xmlns="http://www.w3.org/2000/svg"><g><g><g><g><g><line x1="51.5625" y1="164.31915624671873" x2="46.5625" y2="164.31915624671873" style="visibility: inherit;" fill="rgb(0, 0, 0)" stroke="rgb(204, 204, 204)" stroke-width="1px"></line><line x1="51.5625" y1="152.57143125382314" x2="46.5625" y2="152.57143125382314" style="visibility: inherit;" fill="rgb(0, 0, 0)" stroke="rgb(204, 204, 204)" stroke-width="1px"></line><line x1="51.5625" y1="143.45918782330202" x2="46.5625" y2="143.45918782330202" style="visibility: inherit;" fill="rgb(0, 0, 0)" stroke="rgb(204, 204, 204)" stroke-width="1px"></line><line x1="51.5625" y1="136.0139428303212" x2="46.5625" y2="136.0139428303212" style="visibility: inherit;" fill="rgb(0, 0, 0)" stroke="rgb(204, 204, 204)" stroke-width="1px"></line><line x1="51.5625" y1="129.7190778822036" x2="46.5625" y2="129.7190778822036" style="visibility: inherit;" fill="rgb(0, 0, 0)" stroke="rgb(204, 204, 204)" stroke-width="1px"></line><line x1="51.5625" y1="124.26621783742553" x2="46.5625" y2="124.26621783742553" style="visibility: inherit;" fill="rgb(0, 0, 0)" stroke="rgb(204, 204, 204)" stroke-width="1px"></line><line x1="51.5625" y1="119.45645440681919" x2="46.5625" y2="119.45645440681919" style="visibility: inherit;" fill="rgb(0, 0, 0)" stroke="rgb(204, 204, 204)" stroke-width="1px"></line><line x1="51.5625" y1="115.15397440690442" x2="46.5625" y2="115.15397440690442" style="visibility: inherit;" fill="rgb(0, 0, 0)" stroke="rgb(204, 204, 204)" stroke-width="1px"></line><line x1="51.5625" y1="86.84876099050689" x2="46.5625" y2="86.84876099050689" style="visibility: inherit;" fill="rgb(0, 0, 0)" stroke="rgb(204, 204, 204)" stroke-width="1px"></line><line x1="51.5625" y1="70.29127256700488" x2="46.5625" y2="70.29127256700488" style="visibility: inherit;" fill="rgb(0, 0, 0)" stroke="rgb(204, 204, 204)" stroke-width="1px"></line><line x1="51.5625" y1="58.54354757410926" x2="46.5625" y2="58.54354757410926" style="visibility: inherit;" fill="rgb(0, 0, 0)" stroke="rgb(204, 204, 204)" stroke-width="1px"></line><line x1="51.5625" y1="49.43130414358817" x2="46.5625" y2="49.43130414358817" style="visibility: inherit;" fill="rgb(0, 0, 0)" stroke="rgb(204, 204, 204)" stroke-width="1px"></line><line x1="51.5625" y1="41.9860591506073" x2="46.5625" y2="41.9860591506073" style="visibility: inherit;" fill="rgb(0, 0, 0)" stroke="rgb(204, 204, 204)" stroke-width="1px"></line><line x1="51.5625" y1="35.69119420248974" x2="46.5625" y2="35.69119420248974" style="visibility: inherit;" fill="rgb(0, 0, 0)" stroke="rgb(204, 204, 204)" stroke-width="1px"></line><line x1="51.5625" y1="30.238334157711655" x2="46.5625" y2="30.238334157711655" style="visibility: inherit;" fill="rgb(0, 0, 0)" stroke="rgb(204, 204, 204)" stroke-width="1px"></line><line x1="51.5625" y1="25.42857072710536" x2="46.5625" y2="25.42857072710536" style="visibility: inherit;" fill="rgb(0, 0, 0)" stroke="rgb(204, 204, 204)" stroke-width="1px"></line><line x1="51.5625" y1="21.126090727190586" x2="46.5625" y2="21.126090727190586" style="visibility: inherit;" fill="rgb(0, 0, 0)" stroke="rgb(204, 204, 204)" stroke-width="1px"></line></g><g transform="translate(41.5625, 0)"><text x="0" y="164.31915624671873" dx="0em" dy="0.3em" style="text-anchor: end; visibility: inherit; font-family: Roboto, sans-serif; font-size: 12px; font-weight: 200;" fill="rgb(50, 49, 63)" stroke="none" stroke-width="1px">3e-5</text><text x="0" y="152.57143125382314" dx="0em" dy="0.3em" style="text-anchor: end; visibility: hidden; font-family: Roboto, sans-serif; font-size: 12px; font-weight: 200;" fill="rgb(50, 49, 63)" stroke="none" stroke-width="1px">4e-5</text><text x="0" y="143.45918782330202" dx="0em" dy="0.3em" style="text-anchor: end; visibility: hidden; font-family: Roboto, sans-serif; font-size: 12px; font-weight: 200;" fill="rgb(50, 49, 63)" stroke="none" stroke-width="1px">5e-5</text><text x="0" y="136.0139428303212" dx="0em" dy="0.3em" style="text-anchor: end; visibility: hidden; font-family: Roboto, sans-serif; font-size: 12px; font-weight: 200;" fill="rgb(50, 49, 63)" stroke="none" stroke-width="1px">6e-5</text><text x="0" y="129.7190778822036" dx="0em" dy="0.3em" style="text-anchor: end; visibility: hidden; font-family: Roboto, sans-serif; font-size: 12px; font-weight: 200;" fill="rgb(50, 49, 63)" stroke="none" stroke-width="1px">7e-5</text><text x="0" y="124.26621783742553" dx="0em" dy="0.3em" style="text-anchor: end; visibility: inherit; font-family: Roboto, sans-serif; font-size: 12px; font-weight: 200;" fill="rgb(50, 49, 63)" stroke="none" stroke-width="1px">8e-5</text><text x="0" y="119.45645440681919" dx="0em" dy="0.3em" style="text-anchor: end; visibility: hidden; font-family: Roboto, sans-serif; font-size: 12px; font-weight: 200;" fill="rgb(50, 49, 63)" stroke="none" stroke-width="1px">9e-5</text><text x="0" y="115.15397440690442" dx="0em" dy="0.3em" style="text-anchor: end; visibility: hidden; font-family: Roboto, sans-serif; font-size: 12px; font-weight: 200;" fill="rgb(50, 49, 63)" stroke="none" stroke-width="1px">1e-4</text><text x="0" y="86.84876099050689" dx="0em" dy="0.3em" style="text-anchor: end; visibility: hidden; font-family: Roboto, sans-serif; font-size: 12px; font-weight: 200;" fill="rgb(50, 49, 63)" stroke="none" stroke-width="1px">2e-4</text><text x="0" y="70.29127256700488" dx="0em" dy="0.3em" style="text-anchor: end; visibility: hidden; font-family: Roboto, sans-serif; font-size: 12px; font-weight: 200;" fill="rgb(50, 49, 63)" stroke="none" stroke-width="1px">3e-4</text><text x="0" y="58.54354757410926" dx="0em" dy="0.3em" style="text-anchor: end; visibility: inherit; font-family: Roboto, sans-serif; font-size: 12px; font-weight: 200;" fill="rgb(50, 49, 63)" stroke="none" stroke-width="1px">4e-4</text><text x="0" y="49.43130414358817" dx="0em" dy="0.3em" style="text-anchor: end; visibility: hidden; font-family: Roboto, sans-serif; font-size: 12px; font-weight: 200;" fill="rgb(50, 49, 63)" stroke="none" stroke-width="1px">5e-4</text><text x="0" y="41.9860591506073" dx="0em" dy="0.3em" style="text-anchor: end; visibility: hidden; font-family: Roboto, sans-serif; font-size: 12px; font-weight: 200;" fill="rgb(50, 49, 63)" stroke="none" stroke-width="1px">6e-4</text><text x="0" y="35.69119420248974" dx="0em" dy="0.3em" style="text-anchor: end; visibility: hidden; font-family: Roboto, sans-serif; font-size: 12px; font-weight: 200;" fill="rgb(50, 49, 63)" stroke="none" stroke-width="1px">7e-4</text><text x="0" y="30.238334157711655" dx="0em" dy="0.3em" style="text-anchor: end; visibility: hidden; font-family: Roboto, sans-serif; font-size: 12px; font-weight: 200;" fill="rgb(50, 49, 63)" stroke="none" stroke-width="1px">8e-4</text><text x="0" y="25.42857072710536" dx="0em" dy="0.3em" style="text-anchor: end; visibility: inherit; font-family: Roboto, sans-serif; font-size: 12px; font-weight: 200;" fill="rgb(50, 49, 63)" stroke="none" stroke-width="1px">9e-4</text><text x="0" y="21.126090727190586" dx="0em" dy="0.3em" style="text-anchor: end; visibility: hidden; font-family: Roboto, sans-serif; font-size: 12px; font-weight: 200;" fill="rgb(50, 49, 63)" stroke="none" stroke-width="1px">1e-3</text></g><line x1="51.5625" y1="0" x2="51.5625" y2="178" fill="rgb(0, 0, 0)" stroke="rgb(204, 204, 204)" stroke-width="1px"></line></g></g><g transform="translate(51, 0)" clip-path="url(#clip_0)"><clipPath id="clip_0"><rect width="278" height="178"></rect></clipPath><g><g><g><line x1="0" y1="0" x2="0" y2="178" fill="rgb(0, 0, 0)" stroke="rgb(60, 60, 60)" stroke-width="1px" opacity="0.25"></line><line x1="23.203125" y1="0" x2="23.203125" y2="178" fill="rgb(0, 0, 0)" stroke="rgb(60, 60, 60)" stroke-width="1px" opacity="0.25"></line><line x1="46.40625" y1="0" x2="46.40625" y2="178" fill="rgb(0, 0, 0)" stroke="rgb(60, 60, 60)" stroke-width="1px" opacity="0.25"></line><line x1="69.609375" y1="0" x2="69.609375" y2="178" fill="rgb(0, 0, 0)" stroke="rgb(60, 60, 60)" stroke-width="1px" opacity="0.25"></line><line x1="92.8125" y1="0" x2="92.8125" y2="178" fill="rgb(0, 0, 0)" stroke="rgb(60, 60, 60)" stroke-width="1px" opacity="0.25"></line><line x1="116.015625" y1="0" x2="116.015625" y2="178" fill="rgb(0, 0, 0)" stroke="rgb(60, 60, 60)" stroke-width="1px" opacity="0.25"></line><line x1="139.21875" y1="0" x2="139.21875" y2="178" fill="rgb(0, 0, 0)" stroke="rgb(60, 60, 60)" stroke-width="1px" opacity="0.25"></line><line x1="162.421875" y1="0" x2="162.421875" y2="178" fill="rgb(0, 0, 0)" stroke="rgb(60, 60, 60)" stroke-width="1px" opacity="0.25"></line><line x1="185.625" y1="0" x2="185.625" y2="178" fill="rgb(0, 0, 0)" stroke="rgb(60, 60, 60)" stroke-width="1px" opacity="0.25"></line><line x1="208.828125" y1="0" x2="208.828125" y2="178" fill="rgb(0, 0, 0)" stroke="rgb(60, 60, 60)" stroke-width="1px" opacity="0.25"></line><line x1="232.03125" y1="0" x2="232.03125" y2="178" fill="rgb(0, 0, 0)" stroke="rgb(60, 60, 60)" stroke-width="1px" opacity="0.25"></line><line x1="255.234375" y1="0" x2="255.234375" y2="178" fill="rgb(0, 0, 0)" stroke="rgb(60, 60, 60)" stroke-width="1px" opacity="0.25"></line><line x1="278.4375" y1="0" x2="278.4375" y2="178" fill="rgb(0, 0, 0)" stroke="rgb(60, 60, 60)" stroke-width="1px" opacity="0.25"></line></g><g><line x1="0" y1="164.31915624671873" x2="278.4375" y2="164.31915624671873" fill="rgb(0, 0, 0)" stroke="rgb(60, 60, 60)" stroke-width="1px" opacity="0.25"></line><line x1="0" y1="152.57143125382314" x2="278.4375" y2="152.57143125382314" fill="rgb(0, 0, 0)" stroke="rgb(60, 60, 60)" stroke-width="1px" opacity="0.25"></line><line x1="0" y1="143.45918782330202" x2="278.4375" y2="143.45918782330202" fill="rgb(0, 0, 0)" stroke="rgb(60, 60, 60)" stroke-width="1px" opacity="0.25"></line><line x1="0" y1="136.0139428303212" x2="278.4375" y2="136.0139428303212" fill="rgb(0, 0, 0)" stroke="rgb(60, 60, 60)" stroke-width="1px" opacity="0.25"></line><line x1="0" y1="129.7190778822036" x2="278.4375" y2="129.7190778822036" fill="rgb(0, 0, 0)" stroke="rgb(60, 60, 60)" stroke-width="1px" opacity="0.25"></line><line x1="0" y1="124.26621783742553" x2="278.4375" y2="124.26621783742553" fill="rgb(0, 0, 0)" stroke="rgb(60, 60, 60)" stroke-width="1px" opacity="0.25"></line><line x1="0" y1="119.45645440681919" x2="278.4375" y2="119.45645440681919" fill="rgb(0, 0, 0)" stroke="rgb(60, 60, 60)" stroke-width="1px" opacity="0.25"></line><line x1="0" y1="115.15397440690442" x2="278.4375" y2="115.15397440690442" fill="rgb(0, 0, 0)" stroke="rgb(60, 60, 60)" stroke-width="1px" opacity="0.25"></line><line x1="0" y1="86.84876099050689" x2="278.4375" y2="86.84876099050689" fill="rgb(0, 0, 0)" stroke="rgb(60, 60, 60)" stroke-width="1px" opacity="0.25"></line><line x1="0" y1="70.29127256700488" x2="278.4375" y2="70.29127256700488" fill="rgb(0, 0, 0)" stroke="rgb(60, 60, 60)" stroke-width="1px" opacity="0.25"></line><line x1="0" y1="58.54354757410926" x2="278.4375" y2="58.54354757410926" fill="rgb(0, 0, 0)" stroke="rgb(60, 60, 60)" stroke-width="1px" opacity="0.25"></line><line x1="0" y1="49.43130414358817" x2="278.4375" y2="49.43130414358817" fill="rgb(0, 0, 0)" stroke="rgb(60, 60, 60)" stroke-width="1px" opacity="0.25"></line><line x1="0" y1="41.9860591506073" x2="278.4375" y2="41.9860591506073" fill="rgb(0, 0, 0)" stroke="rgb(60, 60, 60)" stroke-width="1px" opacity="0.25"></line><line x1="0" y1="35.69119420248974" x2="278.4375" y2="35.69119420248974" fill="rgb(0, 0, 0)" stroke="rgb(60, 60, 60)" stroke-width="1px" opacity="0.25"></line><line x1="0" y1="30.238334157711655" x2="278.4375" y2="30.238334157711655" fill="rgb(0, 0, 0)" stroke="rgb(60, 60, 60)" stroke-width="1px" opacity="0.25"></line><line x1="0" y1="25.42857072710536" x2="278.4375" y2="25.42857072710536" fill="rgb(0, 0, 0)" stroke="rgb(60, 60, 60)" stroke-width="1px" opacity="0.25"></line><line x1="0" y1="21.126090727190586" x2="278.4375" y2="21.126090727190586" fill="rgb(0, 0, 0)" stroke="rgb(60, 60, 60)" stroke-width="1px" opacity="0.25"></line></g></g></g><g><g><line x1="23.203125" y1="0" x2="23.203125" y2="178" fill="rgb(0, 0, 0)" stroke="rgb(153, 153, 153)" stroke-width="1.5px"></line></g></g><g><g><g><g><g><path stroke="rgb(255, 112, 67)" stroke-width="2px" d="M23.203125,25.428571428571455L27.84375,25.428571428571455L32.484375,25.428571428571455L37.125,25.428571428571455L41.765625,25.428571428571455L46.40625,25.428571428571455L51.04687499999999,25.428571428571455L55.6875,25.428571428571455L60.328125,25.428571428571455L64.96875,25.428571428571455L69.609375,25.428571428571455L74.25,25.428571428571455L78.890625,25.428571428571455L83.53125,25.428571428571455L88.171875,25.428571428571455L92.8125,25.428571428571455L97.453125,25.428571428571455L102.09374999999999,25.428571428571455L106.73437500000001,25.428571428571455L111.375,25.428571428571455L116.015625,25.428571428571455L120.65625,25.428571428571455L125.296875,25.428571428571455L129.9375,25.428571428571455L134.578125,25.428571428571455L139.21875,25.428571428571455L143.85937500000003,25.428571428571455L148.5,25.428571428571455L153.140625,25.428571428571455L157.78125,25.428571428571455L162.421875,25.428571428571455L167.0625,25.428571428571455L171.703125,25.428571428571455L176.34375,25.428571428571455L180.984375,25.428571428571455L185.625,25.428571428571455L190.265625,25.428571428571455L194.90625,25.428571428571455L199.546875,25.428571428571455L204.18749999999997,25.428571428571455L208.828125,25.428571428571455L213.46875000000003,25.428571428571455L218.109375,25.428571428571455L222.75,25.428571428571455L227.390625,25.428571428571455L232.03125,25.428571428571455L236.671875,25.428571428571455L241.3125,25.428571428571455L245.953125,25.428571428571455L250.59375,25.428571428571455" style="fill: none;" fill="none"></path></g><g><path stroke="rgb(204, 51, 17)" stroke-width="2px" d="M23.203125,86.84876202210575L27.84375,86.84876202210575L32.484375,86.84876202210575L37.125,86.84876202210575L41.765625,86.84876202210575L46.40625,86.84876202210575L51.04687499999999,86.84876202210575L55.6875,86.84876202210575L60.328125,86.84876202210575L64.96875,86.84876202210575L69.609375,86.84876202210575L74.25,86.84876202210575L78.890625,86.84876202210575L83.53125,86.84876202210575L88.171875,86.84876202210575L92.8125,86.84876202210575L97.453125,86.84876202210575L102.09374999999999,86.84876202210575L106.73437500000001,86.84876202210575L111.375,86.84876202210575L116.015625,86.84876202210575L120.65625,86.84876202210575L125.296875,86.84876202210575L129.9375,86.84876202210575L134.578125,86.84876202210575L139.21875,86.84876202210575L143.85937500000003,86.84876202210575L148.5,86.84876202210575L153.140625,86.84876202210575L157.78125,86.84876202210575L162.421875,86.84876202210575L167.0625,86.84876202210575L171.703125,86.84876202210575L176.34375,86.84876202210575L180.984375,86.84876202210575L185.625,86.84876202210575L190.265625,86.84876202210575L194.90625,86.84876202210575L199.546875,86.84876202210575L204.18749999999997,86.84876202210575L208.828125,86.84876202210575L213.46875000000003,86.84876202210575L218.109375,86.84876202210575L222.75,86.84876202210575L227.390625,86.84876202210575L232.03125,86.84876202210575L236.671875,86.84876202210575L241.3125,86.84876202210575L245.953125,86.84876202210575L250.59375,86.84876202210575" style="fill: none;" fill="none"></path></g><g><path stroke="rgb(0, 119, 187)" stroke-width="2px" d="M23.203125,152.5714285714285L27.84375,152.5714285714285L32.484375,152.5714285714285L37.125,152.5714285714285L41.765625,152.5714285714285L46.40625,152.5714285714285L51.04687499999999,152.5714285714285L55.6875,152.5714285714285L60.328125,152.5714285714285L64.96875,152.5714285714285L69.609375,152.5714285714285L74.25,152.5714285714285L78.890625,152.5714285714285L83.53125,152.5714285714285L88.171875,152.5714285714285L92.8125,152.5714285714285L97.453125,152.5714285714285L102.09374999999999,152.5714285714285L106.73437500000001,152.5714285714285L111.375,152.5714285714285L116.015625,152.5714285714285L120.65625,152.5714285714285L125.296875,152.5714285714285L129.9375,152.5714285714285L134.578125,152.5714285714285L139.21875,152.5714285714285L143.85937500000003,152.5714285714285L148.5,152.5714285714285L153.140625,152.5714285714285L157.78125,152.5714285714285L162.421875,152.5714285714285L167.0625,152.5714285714285L171.703125,152.5714285714285L176.34375,152.5714285714285L180.984375,152.5714285714285L185.625,152.5714285714285L190.265625,152.5714285714285L194.90625,152.5714285714285L199.546875,152.5714285714285L204.18749999999997,152.5714285714285L208.828125,152.5714285714285L213.46875000000003,152.5714285714285L218.109375,152.5714285714285L222.75,152.5714285714285L227.390625,152.5714285714285L232.03125,152.5714285714285L236.671875,152.5714285714285L241.3125,152.5714285714285L245.953125,152.5714285714285L250.59375,152.5714285714285" style="fill: none;" fill="none"></path></g><g><path stroke="rgb(51, 187, 238)" stroke-width="2px" d="M23.203125,136.0139413859244L27.84375,136.0139413859244L32.484375,136.0139413859244L37.125,136.0139413859244L41.765625,136.0139413859244L46.40625,136.0139413859244L51.04687499999999,136.0139413859244L55.6875,136.0139413859244L60.328125,136.0139413859244L64.96875,136.0139413859244L69.609375,136.0139413859244L74.25,136.0139413859244L78.890625,136.0139413859244L83.53125,136.0139413859244L88.171875,136.0139413859244L92.8125,136.0139413859244L97.453125,136.0139413859244L102.09374999999999,136.0139413859244L106.73437500000001,136.0139413859244L111.375,136.0139413859244L116.015625,136.0139413859244L120.65625,136.0139413859244L125.296875,136.0139413859244L129.9375,136.0139413859244L134.578125,136.0139413859244L139.21875,136.0139413859244L143.85937500000003,136.0139413859244L148.5,136.0139413859244L153.140625,136.0139413859244L157.78125,136.0139413859244L162.421875,136.0139413859244L167.0625,136.0139413859244L171.703125,136.0139413859244L176.34375,136.0139413859244L180.984375,136.0139413859244L185.625,136.0139413859244L190.265625,136.0139413859244L194.90625,136.0139413859244L199.546875,136.0139413859244L204.18749999999997,136.0139413859244L208.828125,136.0139413859244L213.46875000000003,136.0139413859244L218.109375,136.0139413859244L222.75,136.0139413859244L227.390625,136.0139413859244L232.03125,136.0139413859244L236.671875,136.0139413859244L241.3125,136.0139413859244L245.953125,136.0139413859244L250.59375,136.0139413859244" style="fill: none;" fill="none"></path></g></g></g></g></g></g><g transform="translate(51, 178)" clip-path="url(#clip_1)"><clipPath id="clip_1"><rect width="278" height="22"></rect></clipPath><g><g><line x1="0" y1="0" x2="0" y2="5" style="visibility: inherit;" fill="rgb(0, 0, 0)" stroke="rgb(204, 204, 204)" stroke-width="1px"></line><line x1="23.203125" y1="0" x2="23.203125" y2="5" style="visibility: inherit;" fill="rgb(0, 0, 0)" stroke="rgb(204, 204, 204)" stroke-width="1px"></line><line x1="46.40625" y1="0" x2="46.40625" y2="5" style="visibility: inherit;" fill="rgb(0, 0, 0)" stroke="rgb(204, 204, 204)" stroke-width="1px"></line><line x1="69.609375" y1="0" x2="69.609375" y2="5" style="visibility: inherit;" fill="rgb(0, 0, 0)" stroke="rgb(204, 204, 204)" stroke-width="1px"></line><line x1="92.8125" y1="0" x2="92.8125" y2="5" style="visibility: inherit;" fill="rgb(0, 0, 0)" stroke="rgb(204, 204, 204)" stroke-width="1px"></line><line x1="116.015625" y1="0" x2="116.015625" y2="5" style="visibility: inherit;" fill="rgb(0, 0, 0)" stroke="rgb(204, 204, 204)" stroke-width="1px"></line><line x1="139.21875" y1="0" x2="139.21875" y2="5" style="visibility: inherit;" fill="rgb(0, 0, 0)" stroke="rgb(204, 204, 204)" stroke-width="1px"></line><line x1="162.421875" y1="0" x2="162.421875" y2="5" style="visibility: inherit;" fill="rgb(0, 0, 0)" stroke="rgb(204, 204, 204)" stroke-width="1px"></line><line x1="185.625" y1="0" x2="185.625" y2="5" style="visibility: inherit;" fill="rgb(0, 0, 0)" stroke="rgb(204, 204, 204)" stroke-width="1px"></line><line x1="208.828125" y1="0" x2="208.828125" y2="5" style="visibility: inherit;" fill="rgb(0, 0, 0)" stroke="rgb(204, 204, 204)" stroke-width="1px"></line><line x1="232.03125" y1="0" x2="232.03125" y2="5" style="visibility: inherit;" fill="rgb(0, 0, 0)" stroke="rgb(204, 204, 204)" stroke-width="1px"></line><line x1="255.234375" y1="0" x2="255.234375" y2="5" style="visibility: inherit;" fill="rgb(0, 0, 0)" stroke="rgb(204, 204, 204)" stroke-width="1px"></line><line x1="278.4375" y1="0" x2="278.4375" y2="5" style="visibility: inherit;" fill="rgb(0, 0, 0)" stroke="rgb(204, 204, 204)" stroke-width="1px"></line></g><g transform="translate(0, 8)"><text x="0" y="0" dx="0em" dy="0.95em" style="text-anchor: middle; visibility: hidden; font-family: Roboto, sans-serif; font-size: 12px; font-weight: 200;" fill="rgb(50, 49, 63)" stroke="none" stroke-width="1px">-5</text><text x="23.203125" y="0" dx="0em" dy="0.95em" style="text-anchor: middle; visibility: inherit; font-family: Roboto, sans-serif; font-size: 12px; font-weight: 200;" fill="rgb(50, 49, 63)" stroke="none" stroke-width="1px">0</text><text x="46.40625" y="0" dx="0em" dy="0.95em" style="text-anchor: middle; visibility: inherit; font-family: Roboto, sans-serif; font-size: 12px; font-weight: 200;" fill="rgb(50, 49, 63)" stroke="none" stroke-width="1px">5</text><text x="69.609375" y="0" dx="0em" dy="0.95em" style="text-anchor: middle; visibility: inherit; font-family: Roboto, sans-serif; font-size: 12px; font-weight: 200;" fill="rgb(50, 49, 63)" stroke="none" stroke-width="1px">10</text><text x="92.8125" y="0" dx="0em" dy="0.95em" style="text-anchor: middle; visibility: inherit; font-family: Roboto, sans-serif; font-size: 12px; font-weight: 200;" fill="rgb(50, 49, 63)" stroke="none" stroke-width="1px">15</text><text x="116.015625" y="0" dx="0em" dy="0.95em" style="text-anchor: middle; visibility: inherit; font-family: Roboto, sans-serif; font-size: 12px; font-weight: 200;" fill="rgb(50, 49, 63)" stroke="none" stroke-width="1px">20</text><text x="139.21875" y="0" dx="0em" dy="0.95em" style="text-anchor: middle; visibility: inherit; font-family: Roboto, sans-serif; font-size: 12px; font-weight: 200;" fill="rgb(50, 49, 63)" stroke="none" stroke-width="1px">25</text><text x="162.421875" y="0" dx="0em" dy="0.95em" style="text-anchor: middle; visibility: inherit; font-family: Roboto, sans-serif; font-size: 12px; font-weight: 200;" fill="rgb(50, 49, 63)" stroke="none" stroke-width="1px">30</text><text x="185.625" y="0" dx="0em" dy="0.95em" style="text-anchor: middle; visibility: inherit; font-family: Roboto, sans-serif; font-size: 12px; font-weight: 200;" fill="rgb(50, 49, 63)" stroke="none" stroke-width="1px">35</text><text x="208.828125" y="0" dx="0em" dy="0.95em" style="text-anchor: middle; visibility: inherit; font-family: Roboto, sans-serif; font-size: 12px; font-weight: 200;" fill="rgb(50, 49, 63)" stroke="none" stroke-width="1px">40</text><text x="232.03125" y="0" dx="0em" dy="0.95em" style="text-anchor: middle; visibility: inherit; font-family: Roboto, sans-serif; font-size: 12px; font-weight: 200;" fill="rgb(50, 49, 63)" stroke="none" stroke-width="1px">45</text><text x="255.234375" y="0" dx="0em" dy="0.95em" style="text-anchor: middle; visibility: inherit; font-family: Roboto, sans-serif; font-size: 12px; font-weight: 200;" fill="rgb(50, 49, 63)" stroke="none" stroke-width="1px">50</text><text x="278.4375" y="0" dx="0em" dy="0.95em" style="text-anchor: middle; visibility: hidden; font-family: Roboto, sans-serif; font-size: 12px; font-weight: 200;" fill="rgb(50, 49, 63)" stroke="none" stroke-width="1px">55</text></g><line x1="0" y1="0" x2="278.4375" y2="0" fill="rgb(0, 0, 0)" stroke="rgb(204, 204, 204)" stroke-width="1px"></line></g></g></g></g></svg>