<svg viewBox="0 0 330 200" xmlns="http://www.w3.org/2000/svg"><g><g><g><g><g><line x1="50" y1="171.9616971171273" x2="45" y2="171.9616971171273" style="visibility: inherit;" fill="rgb(0, 0, 0)" stroke="rgb(204, 204, 204)" stroke-width="1px"></line><line x1="50" y1="153.4596401581707" x2="45" y2="153.4596401581707" style="visibility: inherit;" fill="rgb(0, 0, 0)" stroke="rgb(204, 204, 204)" stroke-width="1px"></line><line x1="50" y1="134.9575831992141" x2="45" y2="134.9575831992141" style="visibility: inherit;" fill="rgb(0, 0, 0)" stroke="rgb(204, 204, 204)" stroke-width="1px"></line><line x1="50" y1="116.4555262402575" x2="45" y2="116.4555262402575" style="visibility: inherit;" fill="rgb(0, 0, 0)" stroke="rgb(204, 204, 204)" stroke-width="1px"></line><line x1="50" y1="97.95346928130098" x2="45" y2="97.95346928130098" style="visibility: inherit;" fill="rgb(0, 0, 0)" stroke="rgb(204, 204, 204)" stroke-width="1px"></line><line x1="50" y1="79.4514123223444" x2="45" y2="79.4514123223444" style="visibility: inherit;" fill="rgb(0, 0, 0)" stroke="rgb(204, 204, 204)" stroke-width="1px"></line><line x1="50" y1="60.949355363387795" x2="45" y2="60.949355363387795" style="visibility: inherit;" fill="rgb(0, 0, 0)" stroke="rgb(204, 204, 204)" stroke-width="1px"></line><line x1="50" y1="42.44729840443121" x2="45" y2="42.44729840443121" style="visibility: inherit;" fill="rgb(0, 0, 0)" stroke="rgb(204, 204, 204)" stroke-width="1px"></line><line x1="50" y1="23.9452414454746" x2="45" y2="23.9452414454746" style="visibility: inherit;" fill="rgb(0, 0, 0)" stroke="rgb(204, 204, 204)" stroke-width="1px"></line><line x1="50" y1="5.443184486517993" x2="45" y2="5.443184486517993" style="visibility: inherit;" fill="rgb(0, 0, 0)" stroke="rgb(204, 204, 204)" stroke-width="1px"></line></g><g transform="translate(40, 0)"><text x="0" y="171.9616971171273" dx="0em" dy="0.3em" style="text-anchor: end; visibility: inherit; font-family: Roboto, sans-serif; font-size: 12px; font-weight: 200;" fill="rgb(50, 49, 63)" stroke="none" stroke-width="1px">0.5</text><text x="0" y="153.4596401581707" dx="0em" dy="0.3em" style="text-anchor: end; visibility: hidden; font-family: Roboto, sans-serif; font-size: 12px; font-weight: 200;" fill="rgb(50, 49, 63)" stroke="none" stroke-width="1px">0.52</text><text x="0" y="134.9575831992141" dx="0em" dy="0.3em" style="text-anchor: end; visibility: inherit; font-family: Roboto, sans-serif; font-size: 12px; font-weight: 200;" fill="rgb(50, 49, 63)" stroke="none" stroke-width="1px">0.54</text><text x="0" y="116.4555262402575" dx="0em" dy="0.3em" style="text-anchor: end; visibility: hidden; font-family: Roboto, sans-serif; font-size: 12px; font-weight: 200;" fill="rgb(50, 49, 63)" stroke="none" stroke-width="1px">0.56</text><text x="0" y="97.95346928130098" dx="0em" dy="0.3em" style="text-anchor: end; visibility: inherit; font-family: Roboto, sans-serif; font-size: 12px; font-weight: 200;" fill="rgb(50, 49, 63)" stroke="none" stroke-width="1px">0.58</text><text x="0" y="79.4514123223444" dx="0em" dy="0.3em" style="text-anchor: end; visibility: hidden; font-family: Roboto, sans-serif; font-size: 12px; font-weight: 200;" fill="rgb(50, 49, 63)" stroke="none" stroke-width="1px">0.6</text><text x="0" y="60.949355363387795" dx="0em" dy="0.3em" style="text-anchor: end; visibility: inherit; font-family: Roboto, sans-serif; font-size: 12px; font-weight: 200;" fill="rgb(50, 49, 63)" stroke="none" stroke-width="1px">0.62</text><text x="0" y="42.44729840443121" dx="0em" dy="0.3em" style="text-anchor: end; visibility: hidden; font-family: Roboto, sans-serif; font-size: 12px; font-weight: 200;" fill="rgb(50, 49, 63)" stroke="none" stroke-width="1px">0.64</text><text x="0" y="23.9452414454746" dx="0em" dy="0.3em" style="text-anchor: end; visibility: inherit; font-family: Roboto, sans-serif; font-size: 12px; font-weight: 200;" fill="rgb(50, 49, 63)" stroke="none" stroke-width="1px">0.66</text><text x="0" y="5.443184486517993" dx="0em" dy="0.3em" style="text-anchor: end; visibility: hidden; font-family: Roboto, sans-serif; font-size: 12px; font-weight: 200;" fill="rgb(50, 49, 63)" stroke="none" stroke-width="1px">0.68</text></g><line x1="50" y1="0" x2="50" y2="178" fill="rgb(0, 0, 0)" stroke="rgb(204, 204, 204)" stroke-width="1px"></line></g></g><g transform="translate(50, 0)" clip-path="url(#clip_0)"><clipPath id="clip_0"><rect width="280" height="178"></rect></clipPath><g><g><g><line x1="17.526733459424424" y1="0" x2="17.526733459424424" y2="178" fill="rgb(0, 0, 0)" stroke="rgb(60, 60, 60)" stroke-width="1px" opacity="0.25"></line><line x1="51.863337082284374" y1="0" x2="51.863337082284374" y2="178" fill="rgb(0, 0, 0)" stroke="rgb(60, 60, 60)" stroke-width="1px" opacity="0.25"></line><line x1="86.19994070514433" y1="0" x2="86.19994070514433" y2="178" fill="rgb(0, 0, 0)" stroke="rgb(60, 60, 60)" stroke-width="1px" opacity="0.25"></line><line x1="120.53654432800427" y1="0" x2="120.53654432800427" y2="178" fill="rgb(0, 0, 0)" stroke="rgb(60, 60, 60)" stroke-width="1px" opacity="0.25"></line><line x1="154.87314795086422" y1="0" x2="154.87314795086422" y2="178" fill="rgb(0, 0, 0)" stroke="rgb(60, 60, 60)" stroke-width="1px" opacity="0.25"></line><line x1="189.2097515737242" y1="0" x2="189.2097515737242" y2="178" fill="rgb(0, 0, 0)" stroke="rgb(60, 60, 60)" stroke-width="1px" opacity="0.25"></line><line x1="223.54635519658413" y1="0" x2="223.54635519658413" y2="178" fill="rgb(0, 0, 0)" stroke="rgb(60, 60, 60)" stroke-width="1px" opacity="0.25"></line><line x1="257.88295881944407" y1="0" x2="257.88295881944407" y2="178" fill="rgb(0, 0, 0)" stroke="rgb(60, 60, 60)" stroke-width="1px" opacity="0.25"></line></g><g><line x1="0" y1="171.9616971171273" x2="280" y2="171.9616971171273" fill="rgb(0, 0, 0)" stroke="rgb(60, 60, 60)" stroke-width="1px" opacity="0.25"></line><line x1="0" y1="153.4596401581707" x2="280" y2="153.4596401581707" fill="rgb(0, 0, 0)" stroke="rgb(60, 60, 60)" stroke-width="1px" opacity="0.25"></line><line x1="0" y1="134.9575831992141" x2="280" y2="134.9575831992141" fill="rgb(0, 0, 0)" stroke="rgb(60, 60, 60)" stroke-width="1px" opacity="0.25"></line><line x1="0" y1="116.4555262402575" x2="280" y2="116.4555262402575" fill="rgb(0, 0, 0)" stroke="rgb(60, 60, 60)" stroke-width="1px" opacity="0.25"></line><line x1="0" y1="97.95346928130098" x2="280" y2="97.95346928130098" fill="rgb(0, 0, 0)" stroke="rgb(60, 60, 60)" stroke-width="1px" opacity="0.25"></line><line x1="0" y1="79.4514123223444" x2="280" y2="79.4514123223444" fill="rgb(0, 0, 0)" stroke="rgb(60, 60, 60)" stroke-width="1px" opacity="0.25"></line><line x1="0" y1="60.949355363387795" x2="280" y2="60.949355363387795" fill="rgb(0, 0, 0)" stroke="rgb(60, 60, 60)" stroke-width="1px" opacity="0.25"></line><line x1="0" y1="42.44729840443121" x2="280" y2="42.44729840443121" fill="rgb(0, 0, 0)" stroke="rgb(60, 60, 60)" stroke-width="1px" opacity="0.25"></line><line x1="0" y1="23.9452414454746" x2="280" y2="23.9452414454746" fill="rgb(0, 0, 0)" stroke="rgb(60, 60, 60)" stroke-width="1px" opacity="0.25"></line><line x1="0" y1="5.443184486517993" x2="280" y2="5.443184486517993" fill="rgb(0, 0, 0)" stroke="rgb(60, 60, 60)" stroke-width="1px" opacity="0.25"></line></g></g></g><g><g><line x1="0" y1="634.5131210910419" x2="280" y2="634.5131210910419" fill="rgb(0, 0, 0)" stroke="rgb(153, 153, 153)" stroke-width="1.5px"></line></g></g><g><g><line x1="17.526733459424424" y1="0" x2="17.526733459424424" y2="178" fill="rgb(0, 0, 0)" stroke="rgb(153, 153, 153)" stroke-width="1.5px"></line></g></g><g><g><g><g><g><path style="fill: none;" stroke="rgb(255, 112, 67)" stroke-width="2px" d="M17.526733459424424,174.95259656832124L20.960393821710422,207.76090228281777L24.394054183996417,101.76716204781317L27.82771454628241,49.70114504250968L31.26137490856841,138.93974981964263L34.695035270854405,122.03204080127851L38.128695633140396,94.5951018961333L41.562355995426394,77.87051423461615L44.996016357712385,62.30564002603652L48.42967671999838,51.47126301827044L51.863337082284374,131.61511610747027L55.29699744457037,114.52428573225916L58.73065780685637,113.15090312612017L62.16431816914236,97.92172383488003L65.59797853142837,99.6918418106408L69.03163889371436,86.53798275657303L72.46529925600035,88.21656762412363L75.89895961828634,77.99259513918079L79.33261998057235,72.37703895048686L82.76628034285834,66.88356366635757L86.19994070514433,63.25173946619923L89.63360106743032,61.42058103815615L93.06726142971631,60.993297872179866L96.5009217920023,126.48782839660828L99.93458215428831,106.65028794954587L103.36824251657431,107.84049405841124L106.8019028788603,110.80087328346401L110.2355632411463,99.50872045379383L113.66922360343229,96.5178485728132L117.10288396571828,94.62564969248777L120.53654432800427,97.25027885977445L123.97020469029027,95.87695139406212L127.40386505257628,94.56460924020544L130.83752541486226,88.00295361134881L134.27118577714825,88.67434344602775L137.70484613943424,86.66006366113768L141.13850650172026,87.72824400586504L144.57216686400625,78.32829005652026L148.00582722629224,82.26531651809023L151.43948758857823,81.25817662564519L154.87314795086422,76.13088891478323L158.3068083131502,78.63349231793188L161.74046867543623,75.73415354516143L165.17412903772222,75.61207264059679L168.60778940000822,72.01079623679293L172.0414497622942,71.88871533222829L175.4751101245802,72.59065296326169L178.9087704868662,71.06469679663022L182.34243084915218,70.8205349875009L185.77609121143817,69.11145746402246" fill="none"></path></g><g><path style="fill: none;" stroke="rgb(0, 119, 187)" stroke-width="2px" d="M17.526733459424424,58.9790180872898L20.960393821710422,77.07698835494593L24.394054183996417,26.23172525486229L27.82771454628241,84.58474342396528L31.26137490856841,59.80303662288787L34.695035270854405,54.126439981911616L38.128695633140396,41.00312872419833L41.562355995426394,30.687567990618685L44.996016357712385,24.88889044507779L48.42967671999838,72.37703895048686L51.863337082284374,68.34847938070673L55.29699744457037,68.16535802385975L58.73065780685637,69.75235464277355L62.16431816914236,65.14393834652465L65.59797853142837,64.96081698967767L69.03163889371436,58.582282717668015L72.46529925600035,54.5231753515334L75.89895961828634,50.18946866076827L79.33261998057235,47.16804898343317L82.76628034285834,45.03168829397846L86.19994070514433,42.46804443854747L89.63360106743032,42.16284217713585L93.06726142971631,42.37651133033731L96.5009217920023,76.98545524673577L99.93458215428831,74.51339963994157L103.36824251657431,75.61207264059679L106.8019028788603,74.57444009222391L110.2355632411463,73.68938110434352L113.66922360343229,79.5795917580946L117.10288396571828,73.20105748608493L120.53654432800427,75.48999173603215L123.97020469029027,70.8205349875009L127.40386505257628,75.27637772325733L130.83752541486226,73.0484287851658L134.27118577714825,73.6283406520612L137.70484613943424,72.92634788060116L141.13850650172026,69.3861119290796L144.57216686400625,67.31079169190723L148.00582722629224,69.3861119290796L151.43948758857823,68.37897203663458L154.87314795086422,67.37183214418954L158.3068083131502,68.9283361071755L161.74046867543623,64.68616252462054L165.17412903772222,64.44200071549125L168.60778940000822,64.41145291913676L172.0414497622942,63.5874343835387L175.4751101245802,61.969945108697054L178.9087704868662,59.77254396696003L182.34243084915218,59.46734170554841L185.77609121143817,59.61991526604089" fill="none"></path></g></g></g></g></g></g><g transform="translate(50, 178)" clip-path="url(#clip_1)"><clipPath id="clip_1"><rect width="280" height="22"></rect></clipPath><g><g><line x1="17.526733459424424" y1="0" x2="17.526733459424424" y2="5" style="visibility: inherit;" fill="rgb(0, 0, 0)" stroke="rgb(204, 204, 204)" stroke-width="1px"></line><line x1="51.863337082284374" y1="0" x2="51.863337082284374" y2="5" style="visibility: inherit;" fill="rgb(0, 0, 0)" stroke="rgb(204, 204, 204)" stroke-width="1px"></line><line x1="86.19994070514433" y1="0" x2="86.19994070514433" y2="5" style="visibility: inherit;" fill="rgb(0, 0, 0)" stroke="rgb(204, 204, 204)" stroke-width="1px"></line><line x1="120.53654432800427" y1="0" x2="120.53654432800427" y2="5" style="visibility: inherit;" fill="rgb(0, 0, 0)" stroke="rgb(204, 204, 204)" stroke-width="1px"></line><line x1="154.87314795086422" y1="0" x2="154.87314795086422" y2="5" style="visibility: inherit;" fill="rgb(0, 0, 0)" stroke="rgb(204, 204, 204)" stroke-width="1px"></line><line x1="189.2097515737242" y1="0" x2="189.2097515737242" y2="5" style="visibility: inherit;" fill="rgb(0, 0, 0)" stroke="rgb(204, 204, 204)" stroke-width="1px"></line><line x1="223.54635519658413" y1="0" x2="223.54635519658413" y2="5" style="visibility: inherit;" fill="rgb(0, 0, 0)" stroke="rgb(204, 204, 204)" stroke-width="1px"></line><line x1="257.88295881944407" y1="0" x2="257.88295881944407" y2="5" style="visibility: inherit;" fill="rgb(0, 0, 0)" stroke="rgb(204, 204, 204)" stroke-width="1px"></line></g><g transform="translate(0, 8)"><text x="17.526733459424424" y="0" dx="0em" dy="0.95em" style="text-anchor: middle; visibility: inherit; font-family: Roboto, sans-serif; font-size: 12px; font-weight: 200;" fill="rgb(50, 49, 63)" stroke="none" stroke-width="1px">0</text><text x="51.863337082284374" y="0" dx="0em" dy="0.95em" style="text-anchor: middle; visibility: inherit; font-family: Roboto, sans-serif; font-size: 12px; font-weight: 200;" fill="rgb(50, 49, 63)" stroke="none" stroke-width="1px">10</text><text x="86.19994070514433" y="0" dx="0em" dy="0.95em" style="text-anchor: middle; visibility: inherit; font-family: Roboto, sans-serif; font-size: 12px; font-weight: 200;" fill="rgb(50, 49, 63)" stroke="none" stroke-width="1px">20</text><text x="120.53654432800427" y="0" dx="0em" dy="0.95em" style="text-anchor: middle; visibility: inherit; font-family: Roboto, sans-serif; font-size: 12px; font-weight: 200;" fill="rgb(50, 49, 63)" stroke="none" stroke-width="1px">30</text><text x="154.87314795086422" y="0" dx="0em" dy="0.95em" style="text-anchor: middle; visibility: inherit; font-family: Roboto, sans-serif; font-size: 12px; font-weight: 200;" fill="rgb(50, 49, 63)" stroke="none" stroke-width="1px">40</text><text x="189.2097515737242" y="0" dx="0em" dy="0.95em" style="text-anchor: middle; visibility: inherit; font-family: Roboto, sans-serif; font-size: 12px; font-weight: 200;" fill="rgb(50, 49, 63)" stroke="none" stroke-width="1px">50</text><text x="223.54635519658413" y="0" dx="0em" dy="0.95em" style="text-anchor: middle; visibility: inherit; font-family: Roboto, sans-serif; font-size: 12px; font-weight: 200;" fill="rgb(50, 49, 63)" stroke="none" stroke-width="1px">60</text><text x="257.88295881944407" y="0" dx="0em" dy="0.95em" style="text-anchor: middle; visibility: inherit; font-family: Roboto, sans-serif; font-size: 12px; font-weight: 200;" fill="rgb(50, 49, 63)" stroke="none" stroke-width="1px">70</text></g><line x1="0" y1="0" x2="280" y2="0" fill="rgb(0, 0, 0)" stroke="rgb(204, 204, 204)" stroke-width="1px"></line></g></g></g></g></svg>