<svg viewBox="0 0 330 200" xmlns="http://www.w3.org/2000/svg"><g><g><g><g><g><line x1="50" y1="178" x2="45" y2="178" style="visibility: inherit;" fill="rgb(0, 0, 0)" stroke="rgb(204, 204, 204)" stroke-width="1px"></line><line x1="50" y1="155.74999999999997" x2="45" y2="155.74999999999997" style="visibility: inherit;" fill="rgb(0, 0, 0)" stroke="rgb(204, 204, 204)" stroke-width="1px"></line><line x1="50" y1="133.5" x2="45" y2="133.5" style="visibility: inherit;" fill="rgb(0, 0, 0)" stroke="rgb(204, 204, 204)" stroke-width="1px"></line><line x1="50" y1="111.25" x2="45" y2="111.25" style="visibility: inherit;" fill="rgb(0, 0, 0)" stroke="rgb(204, 204, 204)" stroke-width="1px"></line><line x1="50" y1="89.00000000000001" x2="45" y2="89.00000000000001" style="visibility: inherit;" fill="rgb(0, 0, 0)" stroke="rgb(204, 204, 204)" stroke-width="1px"></line><line x1="50" y1="66.75" x2="45" y2="66.75" style="visibility: inherit;" fill="rgb(0, 0, 0)" stroke="rgb(204, 204, 204)" stroke-width="1px"></line><line x1="50" y1="44.49999999999998" x2="45" y2="44.49999999999998" style="visibility: inherit;" fill="rgb(0, 0, 0)" stroke="rgb(204, 204, 204)" stroke-width="1px"></line><line x1="50" y1="22.25000000000002" x2="45" y2="22.25000000000002" style="visibility: inherit;" fill="rgb(0, 0, 0)" stroke="rgb(204, 204, 204)" stroke-width="1px"></line><line x1="50" y1="0" x2="45" y2="0" style="visibility: inherit;" fill="rgb(0, 0, 0)" stroke="rgb(204, 204, 204)" stroke-width="1px"></line></g><g transform="translate(40, 0)"><text x="0" y="178" dx="0em" dy="0.3em" style="text-anchor: end; visibility: hidden; font-family: Roboto, sans-serif; font-size: 12px; font-weight: 200;" fill="rgb(50, 49, 63)" stroke="none" stroke-width="1px">0.5</text><text x="0" y="155.74999999999997" dx="0em" dy="0.3em" style="text-anchor: end; visibility: inherit; font-family: Roboto, sans-serif; font-size: 12px; font-weight: 200;" fill="rgb(50, 49, 63)" stroke="none" stroke-width="1px">0.55</text><text x="0" y="133.5" dx="0em" dy="0.3em" style="text-anchor: end; visibility: hidden; font-family: Roboto, sans-serif; font-size: 12px; font-weight: 200;" fill="rgb(50, 49, 63)" stroke="none" stroke-width="1px">0.6</text><text x="0" y="111.25" dx="0em" dy="0.3em" style="text-anchor: end; visibility: inherit; font-family: Roboto, sans-serif; font-size: 12px; font-weight: 200;" fill="rgb(50, 49, 63)" stroke="none" stroke-width="1px">0.65</text><text x="0" y="89.00000000000001" dx="0em" dy="0.3em" style="text-anchor: end; visibility: hidden; font-family: Roboto, sans-serif; font-size: 12px; font-weight: 200;" fill="rgb(50, 49, 63)" stroke="none" stroke-width="1px">0.7</text><text x="0" y="66.75" dx="0em" dy="0.3em" style="text-anchor: end; visibility: inherit; font-family: Roboto, sans-serif; font-size: 12px; font-weight: 200;" fill="rgb(50, 49, 63)" stroke="none" stroke-width="1px">0.75</text><text x="0" y="44.49999999999998" dx="0em" dy="0.3em" style="text-anchor: end; visibility: hidden; font-family: Roboto, sans-serif; font-size: 12px; font-weight: 200;" fill="rgb(50, 49, 63)" stroke="none" stroke-width="1px">0.8</text><text x="0" y="22.25000000000002" dx="0em" dy="0.3em" style="text-anchor: end; visibility: inherit; font-family: Roboto, sans-serif; font-size: 12px; font-weight: 200;" fill="rgb(50, 49, 63)" stroke="none" stroke-width="1px">0.85</text><text x="0" y="0" dx="0em" dy="0.3em" style="text-anchor: end; visibility: hidden; font-family: Roboto, sans-serif; font-size: 12px; font-weight: 200;" fill="rgb(50, 49, 63)" stroke="none" stroke-width="1px">0.9</text></g><line x1="50" y1="0" x2="50" y2="178" fill="rgb(0, 0, 0)" stroke="rgb(204, 204, 204)" stroke-width="1px"></line></g></g><g transform="translate(50, 0)" clip-path="url(#clip_0)"><clipPath id="clip_0"><rect width="280" height="178"></rect></clipPath><g><g><g><line x1="0" y1="0" x2="0" y2="178" fill="rgb(0, 0, 0)" stroke="rgb(60, 60, 60)" stroke-width="1px" opacity="0.25"></line><line x1="23.333333333333332" y1="0" x2="23.333333333333332" y2="178" fill="rgb(0, 0, 0)" stroke="rgb(60, 60, 60)" stroke-width="1px" opacity="0.25"></line><line x1="46.666666666666664" y1="0" x2="46.666666666666664" y2="178" fill="rgb(0, 0, 0)" stroke="rgb(60, 60, 60)" stroke-width="1px" opacity="0.25"></line><line x1="70" y1="0" x2="70" y2="178" fill="rgb(0, 0, 0)" stroke="rgb(60, 60, 60)" stroke-width="1px" opacity="0.25"></line><line x1="93.33333333333333" y1="0" x2="93.33333333333333" y2="178" fill="rgb(0, 0, 0)" stroke="rgb(60, 60, 60)" stroke-width="1px" opacity="0.25"></line><line x1="116.66666666666667" y1="0" x2="116.66666666666667" y2="178" fill="rgb(0, 0, 0)" stroke="rgb(60, 60, 60)" stroke-width="1px" opacity="0.25"></line><line x1="140" y1="0" x2="140" y2="178" fill="rgb(0, 0, 0)" stroke="rgb(60, 60, 60)" stroke-width="1px" opacity="0.25"></line><line x1="163.33333333333334" y1="0" x2="163.33333333333334" y2="178" fill="rgb(0, 0, 0)" stroke="rgb(60, 60, 60)" stroke-width="1px" opacity="0.25"></line><line x1="186.66666666666666" y1="0" x2="186.66666666666666" y2="178" fill="rgb(0, 0, 0)" stroke="rgb(60, 60, 60)" stroke-width="1px" opacity="0.25"></line><line x1="210" y1="0" x2="210" y2="178" fill="rgb(0, 0, 0)" stroke="rgb(60, 60, 60)" stroke-width="1px" opacity="0.25"></line><line x1="233.33333333333334" y1="0" x2="233.33333333333334" y2="178" fill="rgb(0, 0, 0)" stroke="rgb(60, 60, 60)" stroke-width="1px" opacity="0.25"></line><line x1="256.66666666666663" y1="0" x2="256.66666666666663" y2="178" fill="rgb(0, 0, 0)" stroke="rgb(60, 60, 60)" stroke-width="1px" opacity="0.25"></line><line x1="280" y1="0" x2="280" y2="178" fill="rgb(0, 0, 0)" stroke="rgb(60, 60, 60)" stroke-width="1px" opacity="0.25"></line></g><g><line x1="0" y1="178" x2="280" y2="178" fill="rgb(0, 0, 0)" stroke="rgb(60, 60, 60)" stroke-width="1px" opacity="0.25"></line><line x1="0" y1="155.74999999999997" x2="280" y2="155.74999999999997" fill="rgb(0, 0, 0)" stroke="rgb(60, 60, 60)" stroke-width="1px" opacity="0.25"></line><line x1="0" y1="133.5" x2="280" y2="133.5" fill="rgb(0, 0, 0)" stroke="rgb(60, 60, 60)" stroke-width="1px" opacity="0.25"></line><line x1="0" y1="111.25" x2="280" y2="111.25" fill="rgb(0, 0, 0)" stroke="rgb(60, 60, 60)" stroke-width="1px" opacity="0.25"></line><line x1="0" y1="89.00000000000001" x2="280" y2="89.00000000000001" fill="rgb(0, 0, 0)" stroke="rgb(60, 60, 60)" stroke-width="1px" opacity="0.25"></line><line x1="0" y1="66.75" x2="280" y2="66.75" fill="rgb(0, 0, 0)" stroke="rgb(60, 60, 60)" stroke-width="1px" opacity="0.25"></line><line x1="0" y1="44.49999999999998" x2="280" y2="44.49999999999998" fill="rgb(0, 0, 0)" stroke="rgb(60, 60, 60)" stroke-width="1px" opacity="0.25"></line><line x1="0" y1="22.25000000000002" x2="280" y2="22.25000000000002" fill="rgb(0, 0, 0)" stroke="rgb(60, 60, 60)" stroke-width="1px" opacity="0.25"></line><line x1="0" y1="0" x2="280" y2="0" fill="rgb(0, 0, 0)" stroke="rgb(60, 60, 60)" stroke-width="1px" opacity="0.25"></line></g></g></g><g><g><line x1="0" y1="400.5" x2="280" y2="400.5" fill="rgb(0, 0, 0)" stroke="rgb(153, 153, 153)" stroke-width="1.5px"></line></g></g><g><g><line x1="23.333333333333332" y1="0" x2="23.333333333333332" y2="178" fill="rgb(0, 0, 0)" stroke="rgb(153, 153, 153)" stroke-width="1.5px"></line></g></g><g><g><g><g><g><path stroke="rgb(51, 187, 238)" stroke-width="2px" d="M23.333333333333332,154.7017900943756L28,149.53421223163605L32.666666666666664,145.1740534901619L37.333333333333336,139.81560844182968L42,139.37520283460617L46.666666666666664,142.25261318683624L51.33333333333333,141.47452968358994L56,141.38644325733185L60.66666666666667,141.01942974328995L65.33333333333333,139.3164785504341L70,142.72238093614578L74.66666666666667,137.09970313310623L79.33333333333333,138.6705379486084L84,138.4209464788437L88.66666666666666,136.4977924823761L93.33333333333333,136.7033274769783L98,138.5824515223503L102.66666666666666,139.33114635944366L107.33333333333334,139.7275220155716L112,138.0979894399643L116.66666666666667,139.55137568712234L121.33333333333334,137.3932980298996L126,138.86137861013412L130.66666666666666,137.93648439645767L135.33333333333334,136.409706056118L140,138.6264814734459L144.66666666666669,138.02457082271576L149.33333333333334,139.19902998209L154,138.12735158205032L158.66666666666666,136.64460319280624L163.33333333333334,139.55137568712234L168,139.38987064361572L172.66666666666669,137.05564665794373L177.33333333333331,137.24651384353638L182,139.4926514029503L186.66666666666666,137.26118165254593L191.33333333333334,138.47967076301575L196,137.3932980298996L200.66666666666666,138.9934949874878L205.33333333333331,137.6869194507599L210,134.83887124061584L214.66666666666669,138.0979894399643L219.33333333333334,136.54182243347168L224,138.68520575761795L228.66666666666666,136.21886539459229L233.33333333333334,135.45547622442245L238,137.45202231407166L242.66666666666669,135.80779540538788L247.33333333333331,136.17480891942978L252,137.11437094211578" style="fill: none;" fill="none"></path></g><g><path stroke="rgb(204, 51, 17)" stroke-width="2px" d="M23.333333333333332,178.49102678894997L28,138.06910473108292L32.666666666666664,124.4524444937706L37.333333333333336,116.09232383966446L42,109.4319184422493L46.666666666666664,104.3831153512001L51.33333333333333,100.59966939687729L56,97.6597683429718L60.66666666666667,94.90243244171143L65.33333333333333,92.39691603183746L70,88.70789575576782L74.66666666666667,88.2987089753151L79.33333333333333,86.23386341333389L84,84.30121380090714L88.66666666666666,82.87217664718628L93.33333333333333,81.57536196708679L98,80.96472489833832L102.66666666666666,79.47903233766556L107.33333333333334,78.26404440402985L112,77.6030381321907L116.66666666666667,76.61469835042953L121.33333333333334,75.5381925702095L126,74.61279439926147L130.66666666666666,74.10918194055557L135.33333333333334,73.26561051607132L140,71.94988417625427L144.66666666666669,70.98042953014374L149.33333333333334,71.31407576799393L154,70.7663803100586L158.66666666666666,70.52715975046158L163.33333333333334,68.32380551099777L168,69.18626207113266L172.66666666666669,69.10443532466888L177.33333333333331,68.32380551099777L182,68.3426906466484L186.66666666666666,66.8885086774826L191.33333333333334,66.24007481336594L196,66.32192808389664L200.66666666666666,65.7616336941719L205.33333333333331,65.46575772762299L210,65.1573093533516L214.66666666666669,64.91808879375458L219.33333333333334,64.34519547224045L224,64.05563223361969L228.66666666666666,63.63384652137756L233.33333333333334,63.142806470394135L238,63.79121381044388L242.66666666666669,63.75344353914261L247.33333333333331,61.594172298908234L252,63.079864859580994" style="fill: none;" fill="none"></path></g><g><path stroke="rgb(0, 119, 187)" stroke-width="2px" d="M23.333333333333332,121.11245441436768L28,111.10025572776794L32.666666666666664,106.97499412298203L37.333333333333336,104.30311876535416L42,103.65717816352844L46.666666666666664,103.89204877614975L51.33333333333333,103.96546739339828L56,103.46631097793579L60.66666666666667,103.99482953548431L65.33333333333333,104.43523514270782L70,104.80224865674973L74.66666666666667,105.27204293012619L79.33333333333333,105.58033215999603L84,106.03543210029602L88.66666666666666,105.78586715459824L93.33333333333333,106.22627276182175L98,106.63734275102615L102.66666666666666,106.59328627586365L107.33333333333334,107.43009406328201L112,107.78243976831436L116.66666666666667,108.26690185070038L121.33333333333334,108.39901822805405L126,108.70730745792389L130.66666666666666,108.9862345457077L135.33333333333334,109.82304233312607L140,109.86707228422165L144.66666666666669,109.6909259557724L149.33333333333334,109.96985304355621L154,110.71854788064957L158.66666666666666,110.7479100227356L163.33333333333334,110.77727216482162L168,111.12961786985397L172.66666666666669,112.20129626989365L177.33333333333331,111.3645150065422L182,112.48024988174438L186.66666666666666,112.21599060297012L191.33333333333334,112.87662553787231L196,112.20129626989365L200.66666666666666,113.71340680122375L205.33333333333331,113.47853618860245L210,113.37575542926788L214.66666666666669,113.77213108539581L219.33333333333334,113.77213108539581L224,114.5942445397377L228.66666666666666,113.96297174692154L233.33333333333334,113.94830393791199L238,114.88786596059799L242.66666666666669,114.60893887281418L247.33333333333331,114.69702529907227L252,115.4604144692421" style="fill: none;" fill="none"></path></g><g><path stroke="rgb(255, 112, 67)" stroke-width="2px" d="M23.333333333333332,158.5035376548767L28,110.21883445978165L32.666666666666664,95.36830115318298L37.333333333333336,86.64305019378662L42,79.1076158285141L46.666666666666664,73.19635617733002L51.33333333333333,69.07923746109009L56,64.64109796285629L60.66666666666667,62.16703909635544L65.33333333333333,58.45913368463516L70,56.96086871623993L74.66666666666667,54.06502413749695L79.33333333333333,52.42825049161911L84,50.898501455783844L88.66666666666666,48.79588562250137L93.33333333333333,47.26613658666611L98,46.680670857429504L102.66666666666666,44.93689912557602L107.33333333333334,43.55823117494583L112,42.89093869924545L116.66666666666667,42.204734563827515L121.33333333333334,41.63186776638031L126,40.221742272377014L130.66666666666666,38.54719835519791L135.33333333333334,39.06340974569321L140,37.95544642210007L144.66666666666669,37.81693774461746L149.33333333333334,36.69008928537369L154,36.041681945323944L158.66666666666666,35.191824316978455L163.33333333333334,34.88334941864014L168,34.637842655181885L172.66666666666669,33.98312258720398L177.33333333333331,33.65576255321503L182,32.40931707620621L186.66666666666666,32.51002895832062L191.33333333333334,32.7177654504776L196,31.559432923793793L200.66666666666666,31.62240105867386L205.33333333333331,32.01898890733719L210,30.942509651184082L214.66666666666669,30.583665549755096L219.33333333333334,30.583665549755096L224,29.941570937633514L228.66666666666666,29.74012064933777L233.33333333333334,29.86600387096405L238,29.041344106197357L242.66666666666669,29.305736005306244L247.33333333333331,29.815661191940308L252,28.934319496154785" style="fill: none;" fill="none"></path></g><g><path stroke="rgb(0, 153, 136)" stroke-width="2px" d="M23.333333333333332,161.7485185265541L28,140.40285128355026L32.666666666666664,130.4787124991417L37.333333333333336,123.81369191408157L42,118.91037333011627L46.666666666666664,115.59253084659576L51.33333333333333,113.22894471883774L56,110.9975014925003L60.66666666666667,109.25049382448196L65.33333333333333,108.13475894927979L70,106.60798060894012L74.66666666666667,105.40415930747986L79.33333333333333,104.50865375995636L84,103.84801882505417L88.66666666666666,103.09929746389389L93.33333333333333,102.277184009552L98,102.14506763219833L102.66666666666666,101.7486919760704L107.33333333333334,101.58718693256378L112,101.01463842391968L116.66666666666667,100.88252204656601L121.33333333333334,100.28061139583588L126,100.06040859222412L130.66666666666666,99.88423573970795L135.33333333333334,99.61997646093369L140,99.69339507818222L144.66666666666669,99.42913579940796L149.33333333333334,99.26765727996826L154,98.93000590801239L158.66666666666666,98.73913872241974L163.33333333333334,98.70977658033371L168,98.57766020298004L172.66666666666669,98.51893591880798L177.33333333333331,98.76850086450577L182,98.35745739936829L186.66666666666666,98.22531449794769L191.33333333333334,98.32809525728226L196,97.93171960115433L200.66666666666666,98.12256026268005L205.33333333333331,98.5923280119896L210,98.53363025188446L214.66666666666669,98.34276306629181L219.33333333333334,98.48957377672195L224,98.51893591880798L228.66666666666666,98.50426810979843L233.33333333333334,98.37212520837784L238,98.12256026268005L242.66666666666669,98.28403878211975L247.33333333333331,98.1372280716896L252,98.25467664003372" style="fill: none;" fill="none"></path></g><g><path stroke="rgb(238, 51, 119)" stroke-width="2px" d="M23.333333333333332,224.81162282824516L28,152.53562259674072L32.666666666666664,135.09774613380432L37.333333333333336,125.00013995170593L42,117.40802365541458L46.666666666666664,111.88077944517136L51.33333333333333,106.12691360712051L56,102.98556226491928L60.66666666666667,99.0950917005539L65.33333333333333,95.64529198408127L70,93.30345559120178L74.66666666666667,91.03084701299667L79.33333333333333,87.78878378868103L84,85.83724904060364L88.66666666666666,84.1438199877739L93.33333333333333,81.91529440879822L98,79.93858832120895L102.66666666666666,78.06890684366226L107.33333333333334,77.45824325084686L112,75.941093146801L116.66666666666667,74.3924589753151L121.33333333333334,73.5426013469696L126,72.28353041410446L130.66666666666666,71.51552605628967L135.33333333333334,69.65213078260422L140,68.41825771331787L144.66666666666669,67.13401544094086L149.33333333333334,66.39746862649918L154,65.69240587949753L158.66666666666666,64.54035955667496L163.33333333333334,63.50793677568436L168,63.1365202665329L172.66666666666669,61.361237943172455L177.33333333333331,61.21015685796738L182,59.91334217786789L186.66666666666666,59.674121618270874L191.33333333333334,59.12642616033554L196,58.5220752954483L200.66666666666666,57.414111971855164L205.33333333333331,56.71533542871475L210,56.27466458082199L214.66666666666669,55.57588803768158L219.33333333333334,54.97156369686127L224,54.4742374420166L228.66666666666666,54.165762543678284L233.33333333333334,53.70620656013489L238,52.705241322517395L242.66666666666669,52.25199806690216L247.33333333333331,51.44619691371918L252,50.92998552322388" style="fill: none;" fill="none"></path></g></g></g></g></g></g><g transform="translate(50, 178)" clip-path="url(#clip_1)"><clipPath id="clip_1"><rect width="280" height="22"></rect></clipPath><g><g><line x1="0" y1="0" x2="0" y2="5" style="visibility: inherit;" fill="rgb(0, 0, 0)" stroke="rgb(204, 204, 204)" stroke-width="1px"></line><line x1="23.333333333333332" y1="0" x2="23.333333333333332" y2="5" style="visibility: inherit;" fill="rgb(0, 0, 0)" stroke="rgb(204, 204, 204)" stroke-width="1px"></line><line x1="46.666666666666664" y1="0" x2="46.666666666666664" y2="5" style="visibility: inherit;" fill="rgb(0, 0, 0)" stroke="rgb(204, 204, 204)" stroke-width="1px"></line><line x1="70" y1="0" x2="70" y2="5" style="visibility: inherit;" fill="rgb(0, 0, 0)" stroke="rgb(204, 204, 204)" stroke-width="1px"></line><line x1="93.33333333333333" y1="0" x2="93.33333333333333" y2="5" style="visibility: inherit;" fill="rgb(0, 0, 0)" stroke="rgb(204, 204, 204)" stroke-width="1px"></line><line x1="116.66666666666667" y1="0" x2="116.66666666666667" y2="5" style="visibility: inherit;" fill="rgb(0, 0, 0)" stroke="rgb(204, 204, 204)" stroke-width="1px"></line><line x1="140" y1="0" x2="140" y2="5" style="visibility: inherit;" fill="rgb(0, 0, 0)" stroke="rgb(204, 204, 204)" stroke-width="1px"></line><line x1="163.33333333333334" y1="0" x2="163.33333333333334" y2="5" style="visibility: inherit;" fill="rgb(0, 0, 0)" stroke="rgb(204, 204, 204)" stroke-width="1px"></line><line x1="186.66666666666666" y1="0" x2="186.66666666666666" y2="5" style="visibility: inherit;" fill="rgb(0, 0, 0)" stroke="rgb(204, 204, 204)" stroke-width="1px"></line><line x1="210" y1="0" x2="210" y2="5" style="visibility: inherit;" fill="rgb(0, 0, 0)" stroke="rgb(204, 204, 204)" stroke-width="1px"></line><line x1="233.33333333333334" y1="0" x2="233.33333333333334" y2="5" style="visibility: inherit;" fill="rgb(0, 0, 0)" stroke="rgb(204, 204, 204)" stroke-width="1px"></line><line x1="256.66666666666663" y1="0" x2="256.66666666666663" y2="5" style="visibility: inherit;" fill="rgb(0, 0, 0)" stroke="rgb(204, 204, 204)" stroke-width="1px"></line><line x1="280" y1="0" x2="280" y2="5" style="visibility: inherit;" fill="rgb(0, 0, 0)" stroke="rgb(204, 204, 204)" stroke-width="1px"></line></g><g transform="translate(0, 8)"><text x="0" y="0" dx="0em" dy="0.95em" style="text-anchor: middle; visibility: hidden; font-family: Roboto, sans-serif; font-size: 12px; font-weight: 200;" fill="rgb(50, 49, 63)" stroke="none" stroke-width="1px">-5</text><text x="23.333333333333332" y="0" dx="0em" dy="0.95em" style="text-anchor: middle; visibility: inherit; font-family: Roboto, sans-serif; font-size: 12px; font-weight: 200;" fill="rgb(50, 49, 63)" stroke="none" stroke-width="1px">0</text><text x="46.666666666666664" y="0" dx="0em" dy="0.95em" style="text-anchor: middle; visibility: inherit; font-family: Roboto, sans-serif; font-size: 12px; font-weight: 200;" fill="rgb(50, 49, 63)" stroke="none" stroke-width="1px">5</text><text x="70" y="0" dx="0em" dy="0.95em" style="text-anchor: middle; visibility: inherit; font-family: Roboto, sans-serif; font-size: 12px; font-weight: 200;" fill="rgb(50, 49, 63)" stroke="none" stroke-width="1px">10</text><text x="93.33333333333333" y="0" dx="0em" dy="0.95em" style="text-anchor: middle; visibility: inherit; font-family: Roboto, sans-serif; font-size: 12px; font-weight: 200;" fill="rgb(50, 49, 63)" stroke="none" stroke-width="1px">15</text><text x="116.66666666666667" y="0" dx="0em" dy="0.95em" style="text-anchor: middle; visibility: inherit; font-family: Roboto, sans-serif; font-size: 12px; font-weight: 200;" fill="rgb(50, 49, 63)" stroke="none" stroke-width="1px">20</text><text x="140" y="0" dx="0em" dy="0.95em" style="text-anchor: middle; visibility: inherit; font-family: Roboto, sans-serif; font-size: 12px; font-weight: 200;" fill="rgb(50, 49, 63)" stroke="none" stroke-width="1px">25</text><text x="163.33333333333334" y="0" dx="0em" dy="0.95em" style="text-anchor: middle; visibility: inherit; font-family: Roboto, sans-serif; font-size: 12px; font-weight: 200;" fill="rgb(50, 49, 63)" stroke="none" stroke-width="1px">30</text><text x="186.66666666666666" y="0" dx="0em" dy="0.95em" style="text-anchor: middle; visibility: inherit; font-family: Roboto, sans-serif; font-size: 12px; font-weight: 200;" fill="rgb(50, 49, 63)" stroke="none" stroke-width="1px">35</text><text x="210" y="0" dx="0em" dy="0.95em" style="text-anchor: middle; visibility: inherit; font-family: Roboto, sans-serif; font-size: 12px; font-weight: 200;" fill="rgb(50, 49, 63)" stroke="none" stroke-width="1px">40</text><text x="233.33333333333334" y="0" dx="0em" dy="0.95em" style="text-anchor: middle; visibility: inherit; font-family: Roboto, sans-serif; font-size: 12px; font-weight: 200;" fill="rgb(50, 49, 63)" stroke="none" stroke-width="1px">45</text><text x="256.66666666666663" y="0" dx="0em" dy="0.95em" style="text-anchor: middle; visibility: inherit; font-family: Roboto, sans-serif; font-size: 12px; font-weight: 200;" fill="rgb(50, 49, 63)" stroke="none" stroke-width="1px">50</text><text x="280" y="0" dx="0em" dy="0.95em" style="text-anchor: middle; visibility: hidden; font-family: Roboto, sans-serif; font-size: 12px; font-weight: 200;" fill="rgb(50, 49, 63)" stroke="none" stroke-width="1px">55</text></g><line x1="0" y1="0" x2="280" y2="0" fill="rgb(0, 0, 0)" stroke="rgb(204, 204, 204)" stroke-width="1px"></line></g></g></g></g></svg>