<svg viewBox="0 0 330 200" xmlns="http://www.w3.org/2000/svg"><g><g><g><g><g><line x1="30" y1="178" x2="25" y2="178" style="visibility: inherit;" fill="rgb(0, 0, 0)" stroke="rgb(204, 204, 204)" stroke-width="1px"></line><line x1="30" y1="160.20000000000002" x2="25" y2="160.20000000000002" style="visibility: inherit;" fill="rgb(0, 0, 0)" stroke="rgb(204, 204, 204)" stroke-width="1px"></line><line x1="30" y1="142.4" x2="25" y2="142.4" style="visibility: inherit;" fill="rgb(0, 0, 0)" stroke="rgb(204, 204, 204)" stroke-width="1px"></line><line x1="30" y1="124.6" x2="25" y2="124.6" style="visibility: inherit;" fill="rgb(0, 0, 0)" stroke="rgb(204, 204, 204)" stroke-width="1px"></line><line x1="30" y1="106.8" x2="25" y2="106.8" style="visibility: inherit;" fill="rgb(0, 0, 0)" stroke="rgb(204, 204, 204)" stroke-width="1px"></line><line x1="30" y1="89" x2="25" y2="89" style="visibility: inherit;" fill="rgb(0, 0, 0)" stroke="rgb(204, 204, 204)" stroke-width="1px"></line><line x1="30" y1="71.2" x2="25" y2="71.2" style="visibility: inherit;" fill="rgb(0, 0, 0)" stroke="rgb(204, 204, 204)" stroke-width="1px"></line><line x1="30" y1="53.400000000000006" x2="25" y2="53.400000000000006" style="visibility: inherit;" fill="rgb(0, 0, 0)" stroke="rgb(204, 204, 204)" stroke-width="1px"></line><line x1="30" y1="35.599999999999994" x2="25" y2="35.599999999999994" style="visibility: inherit;" fill="rgb(0, 0, 0)" stroke="rgb(204, 204, 204)" stroke-width="1px"></line><line x1="30" y1="17.799999999999997" x2="25" y2="17.799999999999997" style="visibility: inherit;" fill="rgb(0, 0, 0)" stroke="rgb(204, 204, 204)" stroke-width="1px"></line><line x1="30" y1="0" x2="25" y2="0" style="visibility: inherit;" fill="rgb(0, 0, 0)" stroke="rgb(204, 204, 204)" stroke-width="1px"></line></g><g transform="translate(20, 0)"><text x="0" y="178" dx="0em" dy="0.3em" style="text-anchor: end; visibility: hidden; font-family: Roboto, sans-serif; font-size: 12px; font-weight: 200;" fill="rgb(50, 49, 63)" stroke="none" stroke-width="1px">-1</text><text x="0" y="160.20000000000002" dx="0em" dy="0.3em" style="text-anchor: end; visibility: inherit; font-family: Roboto, sans-serif; font-size: 12px; font-weight: 200;" fill="rgb(50, 49, 63)" stroke="none" stroke-width="1px">0</text><text x="0" y="142.4" dx="0em" dy="0.3em" style="text-anchor: end; visibility: hidden; font-family: Roboto, sans-serif; font-size: 12px; font-weight: 200;" fill="rgb(50, 49, 63)" stroke="none" stroke-width="1px">1</text><text x="0" y="124.6" dx="0em" dy="0.3em" style="text-anchor: end; visibility: inherit; font-family: Roboto, sans-serif; font-size: 12px; font-weight: 200;" fill="rgb(50, 49, 63)" stroke="none" stroke-width="1px">2</text><text x="0" y="106.8" dx="0em" dy="0.3em" style="text-anchor: end; visibility: hidden; font-family: Roboto, sans-serif; font-size: 12px; font-weight: 200;" fill="rgb(50, 49, 63)" stroke="none" stroke-width="1px">3</text><text x="0" y="89" dx="0em" dy="0.3em" style="text-anchor: end; visibility: inherit; font-family: Roboto, sans-serif; font-size: 12px; font-weight: 200;" fill="rgb(50, 49, 63)" stroke="none" stroke-width="1px">4</text><text x="0" y="71.2" dx="0em" dy="0.3em" style="text-anchor: end; visibility: hidden; font-family: Roboto, sans-serif; font-size: 12px; font-weight: 200;" fill="rgb(50, 49, 63)" stroke="none" stroke-width="1px">5</text><text x="0" y="53.400000000000006" dx="0em" dy="0.3em" style="text-anchor: end; visibility: inherit; font-family: Roboto, sans-serif; font-size: 12px; font-weight: 200;" fill="rgb(50, 49, 63)" stroke="none" stroke-width="1px">6</text><text x="0" y="35.599999999999994" dx="0em" dy="0.3em" style="text-anchor: end; visibility: hidden; font-family: Roboto, sans-serif; font-size: 12px; font-weight: 200;" fill="rgb(50, 49, 63)" stroke="none" stroke-width="1px">7</text><text x="0" y="17.799999999999997" dx="0em" dy="0.3em" style="text-anchor: end; visibility: inherit; font-family: Roboto, sans-serif; font-size: 12px; font-weight: 200;" fill="rgb(50, 49, 63)" stroke="none" stroke-width="1px">8</text><text x="0" y="0" dx="0em" dy="0.3em" style="text-anchor: end; visibility: hidden; font-family: Roboto, sans-serif; font-size: 12px; font-weight: 200;" fill="rgb(50, 49, 63)" stroke="none" stroke-width="1px">9</text></g><line x1="30" y1="0" x2="30" y2="178" fill="rgb(0, 0, 0)" stroke="rgb(204, 204, 204)" stroke-width="1px"></line></g></g><g transform="translate(30, 0)" clip-path="url(#clip_0)"><clipPath id="clip_0"><rect width="300" height="178"></rect></clipPath><g><g><g><line x1="0" y1="0" x2="0" y2="178" fill="rgb(0, 0, 0)" stroke="rgb(60, 60, 60)" stroke-width="1px" opacity="0.25"></line><line x1="25" y1="0" x2="25" y2="178" fill="rgb(0, 0, 0)" stroke="rgb(60, 60, 60)" stroke-width="1px" opacity="0.25"></line><line x1="50" y1="0" x2="50" y2="178" fill="rgb(0, 0, 0)" stroke="rgb(60, 60, 60)" stroke-width="1px" opacity="0.25"></line><line x1="75" y1="0" x2="75" y2="178" fill="rgb(0, 0, 0)" stroke="rgb(60, 60, 60)" stroke-width="1px" opacity="0.25"></line><line x1="100" y1="0" x2="100" y2="178" fill="rgb(0, 0, 0)" stroke="rgb(60, 60, 60)" stroke-width="1px" opacity="0.25"></line><line x1="125" y1="0" x2="125" y2="178" fill="rgb(0, 0, 0)" stroke="rgb(60, 60, 60)" stroke-width="1px" opacity="0.25"></line><line x1="150" y1="0" x2="150" y2="178" fill="rgb(0, 0, 0)" stroke="rgb(60, 60, 60)" stroke-width="1px" opacity="0.25"></line><line x1="175" y1="0" x2="175" y2="178" fill="rgb(0, 0, 0)" stroke="rgb(60, 60, 60)" stroke-width="1px" opacity="0.25"></line><line x1="200" y1="0" x2="200" y2="178" fill="rgb(0, 0, 0)" stroke="rgb(60, 60, 60)" stroke-width="1px" opacity="0.25"></line><line x1="225" y1="0" x2="225" y2="178" fill="rgb(0, 0, 0)" stroke="rgb(60, 60, 60)" stroke-width="1px" opacity="0.25"></line><line x1="250" y1="0" x2="250" y2="178" fill="rgb(0, 0, 0)" stroke="rgb(60, 60, 60)" stroke-width="1px" opacity="0.25"></line><line x1="275" y1="0" x2="275" y2="178" fill="rgb(0, 0, 0)" stroke="rgb(60, 60, 60)" stroke-width="1px" opacity="0.25"></line><line x1="300" y1="0" x2="300" y2="178" fill="rgb(0, 0, 0)" stroke="rgb(60, 60, 60)" stroke-width="1px" opacity="0.25"></line></g><g><line x1="0" y1="178" x2="300" y2="178" fill="rgb(0, 0, 0)" stroke="rgb(60, 60, 60)" stroke-width="1px" opacity="0.25"></line><line x1="0" y1="160.20000000000002" x2="300" y2="160.20000000000002" fill="rgb(0, 0, 0)" stroke="rgb(60, 60, 60)" stroke-width="1px" opacity="0.25"></line><line x1="0" y1="142.4" x2="300" y2="142.4" fill="rgb(0, 0, 0)" stroke="rgb(60, 60, 60)" stroke-width="1px" opacity="0.25"></line><line x1="0" y1="124.6" x2="300" y2="124.6" fill="rgb(0, 0, 0)" stroke="rgb(60, 60, 60)" stroke-width="1px" opacity="0.25"></line><line x1="0" y1="106.8" x2="300" y2="106.8" fill="rgb(0, 0, 0)" stroke="rgb(60, 60, 60)" stroke-width="1px" opacity="0.25"></line><line x1="0" y1="89" x2="300" y2="89" fill="rgb(0, 0, 0)" stroke="rgb(60, 60, 60)" stroke-width="1px" opacity="0.25"></line><line x1="0" y1="71.2" x2="300" y2="71.2" fill="rgb(0, 0, 0)" stroke="rgb(60, 60, 60)" stroke-width="1px" opacity="0.25"></line><line x1="0" y1="53.400000000000006" x2="300" y2="53.400000000000006" fill="rgb(0, 0, 0)" stroke="rgb(60, 60, 60)" stroke-width="1px" opacity="0.25"></line><line x1="0" y1="35.599999999999994" x2="300" y2="35.599999999999994" fill="rgb(0, 0, 0)" stroke="rgb(60, 60, 60)" stroke-width="1px" opacity="0.25"></line><line x1="0" y1="17.799999999999997" x2="300" y2="17.799999999999997" fill="rgb(0, 0, 0)" stroke="rgb(60, 60, 60)" stroke-width="1px" opacity="0.25"></line><line x1="0" y1="0" x2="300" y2="0" fill="rgb(0, 0, 0)" stroke="rgb(60, 60, 60)" stroke-width="1px" opacity="0.25"></line></g></g></g><g><g><line x1="0" y1="160.20000000000002" x2="300" y2="160.20000000000002" fill="rgb(0, 0, 0)" stroke="rgb(153, 153, 153)" stroke-width="1.5px"></line></g></g><g><g><line x1="25" y1="0" x2="25" y2="178" fill="rgb(0, 0, 0)" stroke="rgb(153, 153, 153)" stroke-width="1.5px"></line></g></g><g><g><g><g><g><path stroke="rgb(51, 187, 238)" stroke-width="2px" d="M25,104.56903314590454L30,99.37901592254639L35,94.89232783317566L40,93.60489630699158L45,89.73027334213256L50,84.38511791229249L54.99999999999999,81.0977038383484L60,78.51984462738037L65,75.47287864685059L70,74.2913311958313L75,69.29238061904907L80,71.62606563568116L85,67.0035870552063L90,64.33774433135986L95,63.57720384597778L100,61.8236701965332L105,58.457456302642825L109.99999999999999,56.44132165908813L115.00000000000001,54.89835939407348L120,54.74378137588501L125,50.0063199043274L130,50.65554418563843L135,49.10492601394654L140,47.550157356262204L145,47.967930507659915L150,43.05513858795166L155.00000000000003,42.32340536117553L160,40.10817470550538L165,38.69890222549438L170,39.73132076263428L175,35.49733276367188L180,35.144549942016596L185,35.000912570953375L190,34.312763690948486L195,31.319321155548096L200,31.384523677825925L205,29.025019073486337L210,30.081780338287363L215,26.460247898101816L219.99999999999997,26.729197692871097L225,28.386336517333987L230.00000000000003,22.82377710342408L235,24.948325157165527L240,21.873595905303958L245,23.441690254211423L250,21.752450942993164L255,20.392772102355966L260,20.5004301071167L265,19.384365272521975L270,15.978114891052241" style="fill: none;" fill="none"></path></g><g><path stroke="rgb(204, 51, 17)" stroke-width="2px" d="M25,105.2451379776001L30,112.00866470336913L35,114.79711227416992L40,116.19344100952148L45,117.74750943183899L50,118.55522880554199L54.99999999999999,119.12097654342651L60,119.82810392379761L65,120.00008597373963L70,120.51506876945496L75,120.93583383560181L80,121.09624290466309L85,121.28054485321044L90,121.54315009117127L95,121.94590001106262L100,122.02933835983276L105,121.92597088813781L109.99999999999999,122.2989501953125L115.00000000000001,122.56497173309326L120,122.47534584999084L125,122.47557077407836L130,122.87223076820374L135,122.62926607131958L140,122.75669617652893L145,122.59649081230164L150,123.24616494178773L155.00000000000003,123.06328043937683L160,123.08639245033264L165,122.77282280921936L170,122.60201630592346L175,123.29683651924134L180,123.15093293190003L185,123.11892580986023L190,123.11449947357178L195,122.6362174987793L200,122.97132892608643L205,123.17541995048524L210,123.0981818675995L215,122.91373138427734L219.99999999999997,123.24900832176209L225,122.87135653495788L230.00000000000003,122.99550614356994L235,123.13690276145935L240,123.31910400390625L245,122.9734381198883L250,123.0817624092102L255,123.0020501613617L260,122.61706924438477L265,123.44422545433045L270,123.13608794212341" style="fill: none;" fill="none"></path></g><g><path stroke="rgb(0, 119, 187)" stroke-width="2px" d="M25,135.24731640815733L30,137.0297909975052L35,137.64355790615082L40,137.93795595169067L45,138.03553693294523L50,138.02728264331816L54.99999999999999,137.92893352508545L60,137.8612950325012L65,137.65084035396578L70,137.47646477222443L75,137.36283779144287L80,137.19240899086L85,136.93302695751188L90,136.85845189094542L95,136.6441119670868L100,136.48341007232668L105,136.36433610916137L109.99999999999999,136.13358309268952L115.00000000000001,135.93985979557036L120,135.7508301973343L125,135.55650002956392L130,135.40455532073975L135,135.27459588050843L140,135.05725343227388L145,134.79919123649597L150,134.64021022319795L155.00000000000003,134.5614252567291L160,134.43311455249787L165,134.17317020893097L170,133.9910877943039L175,133.93538513183594L180,133.7122243642807L185,133.5317906856537L190,133.45249857902527L195,133.22073340415955L200,133.0053049325943L205,132.84427201747894L210,132.78847386837006L215,132.5449235200882L219.99999999999997,132.51337049007415L225,132.33857264518738L230.00000000000003,132.15356833934786L235,132.02178404331207L240,131.90641920566557L245,131.76312346458437L250,131.65281093120575L255,131.49746265411378L260,131.42026064395904L265,131.38536133766175L270,131.13299651145937" style="fill: none;" fill="none"></path></g><g><path stroke="rgb(255, 112, 67)" stroke-width="2px" d="M25,127.52799811363221L30,136.91261403560637L35,139.42804408073425L40,141.01545007228853L45,142.19802877902984L50,143.10705099105834L54.99999999999999,143.85490448474886L60,144.492198240757L65,144.9480758666992L70,145.48848251104354L75,145.8738740205765L80,146.23533021211622L85,146.586656332016L90,146.85270227193834L95,147.13545200824737L100,147.31855082511902L105,147.55062686204909L109.99999999999999,147.73907505273817L115.00000000000001,147.9490936756134L120,148.0906101822853L125,148.22198176383972L130,148.39759018421174L135,148.55209075212477L140,148.7432454586029L145,148.78242256641389L150,149.0179976582527L155.00000000000003,149.01555001735687L160,149.15181688070297L165,149.2518444418907L170,149.3391553044319L175,149.48576761484148L180,149.51670316457748L185,149.62797162532806L190,149.68058158159258L195,149.82111457586288L200,149.8590577840805L205,149.85332646369935L210,149.9903985977173L215,150.0486825823784L219.99999999999997,149.99208977222443L225,150.14184889793395L230.00000000000003,150.20399372577666L235,150.1838184595108L240,150.2967971920967L245,150.31513911485672L250,150.36498844623566L255,150.40771659612656L260,150.4540085196495L265,150.46588599681854L270,150.53150547742845" style="fill: none;" fill="none"></path></g><g><path stroke="rgb(0, 153, 136)" stroke-width="2px" d="M25,123.94885749816895L30,130.2735276222229L35,132.762734913826L40,134.1670930147171L45,135.10276024341582L50,135.76679344177248L54.99999999999999,136.27003350257874L60,136.68701093196867L65,137.0065198421478L70,137.28026518821716L75,137.50988721847534L80,137.7080283641815L85,137.87969636917114L90,138.03158802986147L95,138.1428023815155L100,138.25145981311798L105,138.34839997291564L109.99999999999999,138.4403260231018L115.00000000000001,138.51149327754976L120,138.58772768974305L125,138.6415524482727L130,138.6979956626892L135,138.7405211687088L140,138.78868887424468L145,138.81640121936798L150,138.85095252990723L155.00000000000003,138.87605278491972L160,138.90749759674074L165,138.9219160795212L170,138.93396649360656L175,138.9480306148529L180,138.9547974348068L185,138.9744931459427L190,138.9820726633072L195,138.99229609966278L200,138.99562327861784L205,138.99212210178374L210,138.99936635494234L215,138.9960222005844L219.99999999999997,138.994952750206L225,138.99090411663056L230.00000000000003,138.99320640563965L235,138.9774044275284L240,138.963675570488L245,138.9584747314453L250,138.94734098911286L255,138.94174759387968L260,138.92782139778137L265,138.9150092124939L270,138.90078806877136" style="fill: none;" fill="none"></path></g><g><path stroke="rgb(238, 51, 119)" stroke-width="2px" d="M25,109.18657612800598L30,126.90988337993622L35,131.26271829605102L40,133.51424024105071L45,134.9836799144745L50,136.08126490116118L54.99999999999999,136.9654266357422L60,137.67410089969636L65,138.299196767807L70,138.84900672435762L75,139.28772327899932L80,139.72892248630524L85,140.139790892601L90,140.49076583385468L95,140.8324000597L100,141.10992455482483L105,141.39294271469115L109.99999999999999,141.70687520503998L115.00000000000001,141.90688576698304L120,142.13860425949096L125,142.36580941677093L130,142.581974196434L135,142.78793569803238L140,142.92909359931946L145,143.15650033950806L150,143.35999085903168L155.00000000000003,143.4654410004616L160,143.69363603591918L165,143.80042511224747L170,143.96423032283784L175,144.12905724048616L180,144.2091652274132L185,144.40134482383726L190,144.50333516597746L195,144.64886211156843L200,144.76491657495498L205,144.87207698822021L210,144.9582770228386L215,145.13076833486556L219.99999999999997,145.22317500114443L225,145.25285437107087L230.00000000000003,145.41830725669863L235,145.5155731320381L240,145.61269471645355L245,145.6464004397392L250,145.7865949869156L255,145.88249328136445L260,145.99125999212265L265,146.06908160448074L270,146.15739932060242" style="fill: none;" fill="none"></path></g></g></g></g></g><g><g opacity="0.00139571"><span fill="rgb(0, 0, 0)" stroke="none" stroke-width="1px">Alt + Scroll to Zoom</span></g></g></g><g transform="translate(30, 178)" clip-path="url(#clip_1)"><clipPath id="clip_1"><rect width="300" height="22"></rect></clipPath><g><g><line x1="0" y1="0" x2="0" y2="5" style="visibility: inherit;" fill="rgb(0, 0, 0)" stroke="rgb(204, 204, 204)" stroke-width="1px"></line><line x1="25" y1="0" x2="25" y2="5" style="visibility: inherit;" fill="rgb(0, 0, 0)" stroke="rgb(204, 204, 204)" stroke-width="1px"></line><line x1="50" y1="0" x2="50" y2="5" style="visibility: inherit;" fill="rgb(0, 0, 0)" stroke="rgb(204, 204, 204)" stroke-width="1px"></line><line x1="75" y1="0" x2="75" y2="5" style="visibility: inherit;" fill="rgb(0, 0, 0)" stroke="rgb(204, 204, 204)" stroke-width="1px"></line><line x1="100" y1="0" x2="100" y2="5" style="visibility: inherit;" fill="rgb(0, 0, 0)" stroke="rgb(204, 204, 204)" stroke-width="1px"></line><line x1="125" y1="0" x2="125" y2="5" style="visibility: inherit;" fill="rgb(0, 0, 0)" stroke="rgb(204, 204, 204)" stroke-width="1px"></line><line x1="150" y1="0" x2="150" y2="5" style="visibility: inherit;" fill="rgb(0, 0, 0)" stroke="rgb(204, 204, 204)" stroke-width="1px"></line><line x1="175" y1="0" x2="175" y2="5" style="visibility: inherit;" fill="rgb(0, 0, 0)" stroke="rgb(204, 204, 204)" stroke-width="1px"></line><line x1="200" y1="0" x2="200" y2="5" style="visibility: inherit;" fill="rgb(0, 0, 0)" stroke="rgb(204, 204, 204)" stroke-width="1px"></line><line x1="225" y1="0" x2="225" y2="5" style="visibility: inherit;" fill="rgb(0, 0, 0)" stroke="rgb(204, 204, 204)" stroke-width="1px"></line><line x1="250" y1="0" x2="250" y2="5" style="visibility: inherit;" fill="rgb(0, 0, 0)" stroke="rgb(204, 204, 204)" stroke-width="1px"></line><line x1="275" y1="0" x2="275" y2="5" style="visibility: inherit;" fill="rgb(0, 0, 0)" stroke="rgb(204, 204, 204)" stroke-width="1px"></line><line x1="300" y1="0" x2="300" y2="5" style="visibility: inherit;" fill="rgb(0, 0, 0)" stroke="rgb(204, 204, 204)" stroke-width="1px"></line></g><g transform="translate(0, 8)"><text x="0" y="0" dx="0em" dy="0.95em" style="text-anchor: middle; visibility: hidden; font-family: Roboto, sans-serif; font-size: 12px; font-weight: 200;" fill="rgb(50, 49, 63)" stroke="none" stroke-width="1px">-5</text><text x="25" y="0" dx="0em" dy="0.95em" style="text-anchor: middle; visibility: inherit; font-family: Roboto, sans-serif; font-size: 12px; font-weight: 200;" fill="rgb(50, 49, 63)" stroke="none" stroke-width="1px">0</text><text x="50" y="0" dx="0em" dy="0.95em" style="text-anchor: middle; visibility: inherit; font-family: Roboto, sans-serif; font-size: 12px; font-weight: 200;" fill="rgb(50, 49, 63)" stroke="none" stroke-width="1px">5</text><text x="75" y="0" dx="0em" dy="0.95em" style="text-anchor: middle; visibility: inherit; font-family: Roboto, sans-serif; font-size: 12px; font-weight: 200;" fill="rgb(50, 49, 63)" stroke="none" stroke-width="1px">10</text><text x="100" y="0" dx="0em" dy="0.95em" style="text-anchor: middle; visibility: inherit; font-family: Roboto, sans-serif; font-size: 12px; font-weight: 200;" fill="rgb(50, 49, 63)" stroke="none" stroke-width="1px">15</text><text x="125" y="0" dx="0em" dy="0.95em" style="text-anchor: middle; visibility: inherit; font-family: Roboto, sans-serif; font-size: 12px; font-weight: 200;" fill="rgb(50, 49, 63)" stroke="none" stroke-width="1px">20</text><text x="150" y="0" dx="0em" dy="0.95em" style="text-anchor: middle; visibility: inherit; font-family: Roboto, sans-serif; font-size: 12px; font-weight: 200;" fill="rgb(50, 49, 63)" stroke="none" stroke-width="1px">25</text><text x="175" y="0" dx="0em" dy="0.95em" style="text-anchor: middle; visibility: inherit; font-family: Roboto, sans-serif; font-size: 12px; font-weight: 200;" fill="rgb(50, 49, 63)" stroke="none" stroke-width="1px">30</text><text x="200" y="0" dx="0em" dy="0.95em" style="text-anchor: middle; visibility: inherit; font-family: Roboto, sans-serif; font-size: 12px; font-weight: 200;" fill="rgb(50, 49, 63)" stroke="none" stroke-width="1px">35</text><text x="225" y="0" dx="0em" dy="0.95em" style="text-anchor: middle; visibility: inherit; font-family: Roboto, sans-serif; font-size: 12px; font-weight: 200;" fill="rgb(50, 49, 63)" stroke="none" stroke-width="1px">40</text><text x="250" y="0" dx="0em" dy="0.95em" style="text-anchor: middle; visibility: inherit; font-family: Roboto, sans-serif; font-size: 12px; font-weight: 200;" fill="rgb(50, 49, 63)" stroke="none" stroke-width="1px">45</text><text x="275" y="0" dx="0em" dy="0.95em" style="text-anchor: middle; visibility: inherit; font-family: Roboto, sans-serif; font-size: 12px; font-weight: 200;" fill="rgb(50, 49, 63)" stroke="none" stroke-width="1px">50</text><text x="300" y="0" dx="0em" dy="0.95em" style="text-anchor: middle; visibility: hidden; font-family: Roboto, sans-serif; font-size: 12px; font-weight: 200;" fill="rgb(50, 49, 63)" stroke="none" stroke-width="1px">55</text></g><line x1="0" y1="0" x2="300" y2="0" fill="rgb(0, 0, 0)" stroke="rgb(204, 204, 204)" stroke-width="1px"></line></g></g></g></g></svg>